# xmcd
#
# Track frame offsets: 
#        150
#        15465
#        31603
#        41025
#        51820
#        62793
#        75000
#        87273
#        101673
#        118718
#        130765
#        141408
#
# Disc length: 2020 seconds
#
# Revision: 1
# Processed by: cddbd v1.5.2PL0 Copyright (c) Steve Scherf et al.
# Submitted via: ExactAudioCopyFreeDBPlugin 1.0
#
DISCID=9107e20c
DTITLE=Bobby Bare - Country Gold - CDP 7 93665 2
DYEAR=1990
DGENRE=Country
TTITLE0=For The Good Times 1970
TTITLE1=Me And Bobby McGee 1971
TTITLE2=That's All Right , Mama 1981
TTITLE3=Don't It Make You Want To Go Home 1970
TTITLE4=Hello Darlin' 1970
TTITLE5=Lovin' Her Was Easier Than Anything I'll Ever Do 1970
TTITLE6=Roses Are Red My Love 1972
TTITLE7=Leaving On A Jet Plane 1970
TTITLE8=Sylvia's Mother 1974
TTITLE9=Even The Bad Times Are Good 1979
TTITLE10=Crazy Arms 1979
TTITLE11=Help Me Make It Through The Night 1970
EXTD=
EXTT0=
EXTT1=
EXTT2=
EXTT3=
EXTT4=
EXTT5=
EXTT6=
EXTT7=
EXTT8=
EXTT9=
EXTT10=
EXTT11=
PLAYORDER=
